<mxfile host="app.diagrams.net" modified="2023-09-25T08:23:52.554Z" agent="Mozilla/5.0 (Macintosh; Intel Mac OS X 10_15_7) AppleWebKit/537.36 (KHTML, like Gecko) Chrome/117.0.0.0 Safari/537.36" version="21.8.2" etag="PXiiAP-sx5VbrWIXSoLc" type="github">
  <diagram name="Page-1" id="2Jch4cfU6Oipx-r-nxzt">
    <mxGraphModel>
      <root>
        <mxCell id="0" />
        <mxCell id="1" parent="0" />
      </root>
    </mxGraphModel>
  </diagram>
</mxfile>
